####
#
# OBJ File Generated by Meshlab
#
####
# Object horse-gallop-01_200_faces.obj
#
# Vertices: 109
# Faces: 199
#
####
vn -0.986557 0.160272 0.031919
v -0.124806 0.473905 -0.069190 0.752941 0.752941 0.752941
vn -0.376730 -0.926273 -0.009648
v -0.054352 0.339098 -0.067766 0.752941 0.752941 0.752941
vn -0.522075 -0.846618 0.103329
v -0.081660 0.383578 -0.224970 0.752941 0.752941 0.752941
vn -0.900142 -0.435573 0.004605
v -0.109774 0.390536 -0.048988 0.752941 0.752941 0.752941
vn -0.845151 0.533814 0.027593
v -0.098496 0.568154 -0.229965 0.752941 0.752941 0.752941
vn -0.768761 0.555720 -0.316514
v -0.081026 0.571449 -0.323640 0.752941 0.752941 0.752941
vn -0.978750 0.190234 -0.076550
v -0.118404 0.504707 -0.283067 0.752941 0.752941 0.752941
vn -0.991476 -0.126925 0.029410
v -0.106426 0.462939 -0.190360 0.752941 0.752941 0.752941
vn 0.963972 0.143457 0.224007
v 0.012629 0.607679 -0.375886 0.752941 0.752941 0.752941
vn 0.003151 0.999699 0.024332
v 0.004271 0.620596 -0.247621 0.752941 0.752941 0.752941
vn 0.647217 0.759284 0.067804
v 0.056620 0.563527 -0.104221 0.752941 0.752941 0.752941
vn 0.090142 -0.981094 0.171255
v 0.040563 0.381742 -0.211387 0.752941 0.752941 0.752941
vn 0.313401 -0.178045 -0.932781
v 0.070494 0.395718 -0.394205 0.752941 0.752941 0.752941
vn -0.168511 -0.849089 -0.500652
v 0.000947 0.368335 -0.349187 0.752941 0.752941 0.752941
vn -0.577321 0.813162 -0.073946
v -0.018313 0.596840 -0.385478 0.752941 0.752941 0.752941
vn 0.896549 -0.436585 0.074787
v 0.090581 0.410026 -0.200465 0.752941 0.752941 0.752941
vn 0.701596 0.681561 -0.207936
v 0.083425 0.583495 -0.294935 0.752941 0.752941 0.752941
vn 0.950792 0.079983 -0.299328
v 0.118865 0.477816 -0.326877 0.752941 0.752941 0.752941
vn 0.709867 0.334706 -0.619727
v 0.091557 0.515119 -0.363067 0.752941 0.752941 0.752941
vn 0.913117 0.378707 0.150993
v 0.107298 0.546991 -0.190175 0.752941 0.752941 0.752941
vn -0.748198 0.662502 0.035924
v -0.066853 0.555756 -0.049489 0.752941 0.752941 0.752941
vn 0.085680 0.946770 -0.310299
v -0.002505 0.611271 0.032016 0.752941 0.752941 0.752941
vn 0.141877 -0.978344 -0.150712
v 0.018134 0.325991 -0.067815 0.752941 0.752941 0.752941
vn 0.693369 -0.711903 -0.111503
v 0.092506 0.370292 -0.075968 0.752941 0.752941 0.752941
vn 0.990086 -0.137882 -0.026787
v 0.124018 0.436741 -0.069659 0.752941 0.752941 0.752941
vn 0.194507 -0.979676 -0.049011
v 0.049868 0.340341 0.036676 0.752941 0.752941 0.752941
vn 0.948582 0.316397 -0.009171
v 0.113450 0.500467 -0.131233 0.752941 0.752941 0.752941
vn 0.233695 -0.057779 0.970592
v 0.012434 0.497222 0.249941 0.752941 0.752941 0.752941
vn -0.905723 0.423654 0.013496
v -0.091723 0.539233 0.109150 0.752941 0.752941 0.752941
vn -0.875486 0.091348 0.474532
v -0.101668 0.484762 0.202163 0.752941 0.752941 0.752941
vn -0.398181 -0.129824 0.908074
v -0.029987 0.463998 0.243450 0.752941 0.752941 0.752941
vn -0.858992 0.463475 0.217541
v -0.056681 0.579611 0.150608 0.752941 0.752941 0.752941
vn -0.996231 0.058359 -0.064179
v -0.107972 0.460672 0.075013 0.752941 0.752941 0.752941
vn 0.856007 0.408818 0.316416
v 0.054881 0.550556 0.191589 0.752941 0.752941 0.752941
vn 0.685768 0.727164 0.030883
v 0.057022 0.582060 0.040900 0.752941 0.752941 0.752941
vn 0.923810 -0.379481 -0.050692
v 0.101658 0.389502 0.049792 0.752941 0.752941 0.752941
vn 0.974228 0.222835 0.034993
v 0.105713 0.498230 0.011552 0.752941 0.752941 0.752941
vn 0.710962 0.144208 0.688285
v 0.095616 0.461283 0.201687 0.752941 0.752941 0.752941
vn -0.304972 0.125000 0.944122
v 0.044141 0.359824 0.223742 0.752941 0.752941 0.752941
vn 0.887437 0.406687 0.216935
v 0.098093 0.519501 0.160463 0.752941 0.752941 0.752941
vn 0.964607 0.023609 0.262634
v 0.114705 0.386209 0.172273 0.752941 0.752941 0.752941
vn 0.307668 0.633899 0.709586
v 0.073037 0.219509 0.333016 0.752941 0.752941 0.752941
vn -0.424910 -0.865871 0.264043
v 0.026369 0.326884 0.173212 0.752941 0.752941 0.752941
vn -0.839314 -0.479233 -0.256688
v 0.058144 0.210142 0.315866 0.752941 0.752941 0.752941
vn 0.647723 -0.689935 -0.323180
v 0.091627 0.293613 0.217073 0.752941 0.752941 0.752941
vn -0.987348 -0.122001 -0.101286
v 0.053771 0.115891 0.406134 0.752941 0.752941 0.752941
vn 0.766477 -0.098838 -0.634621
v 0.085766 0.136699 0.393084 0.752941 0.752941 0.752941
vn -0.508265 0.563102 0.651601
v 0.073676 0.112126 0.442736 0.752941 0.752941 0.752941
vn 0.480593 0.633182 0.606722
v 0.081174 0.110069 0.440784 0.752941 0.752941 0.752941
vn 0.808399 0.476604 0.345455
v 0.088030 0.107303 0.436255 0.752941 0.752941 0.752941
vn 0.914395 0.379241 0.141624
v 0.093733 0.104048 0.429080 0.752941 0.752941 0.752941
vn 0.962039 0.019163 -0.272238
v 0.093422 0.100605 0.417599 0.752941 0.752941 0.752941
vn 0.739750 -0.183890 -0.647267
v 0.086589 0.098099 0.404991 0.752941 0.752941 0.752941
vn 0.253417 -0.201906 -0.946052
v 0.078110 0.096599 0.399591 0.752941 0.752941 0.752941
vn -0.405272 -0.195327 -0.893086
v 0.069459 0.096904 0.400183 0.752941 0.752941 0.752941
vn -0.603764 0.107144 0.789930
v 0.073279 0.109228 0.443509 0.752941 0.752941 0.752941
vn -0.589579 -0.703573 -0.396714
v 0.069512 0.095039 0.401333 0.752941 0.752941 0.752941
vn 0.438746 0.089510 0.894142
v 0.080734 0.107411 0.441404 0.752941 0.752941 0.752941
vn 0.668601 0.012745 0.743512
v 0.087592 0.104887 0.436811 0.752941 0.752941 0.752941
vn 0.874767 -0.279443 0.395845
v 0.093637 0.101778 0.429676 0.752941 0.752941 0.752941
vn 0.799778 -0.596524 -0.067189
v 0.093314 0.099439 0.419260 0.752941 0.752941 0.752941
vn 0.568573 -0.773680 -0.279544
v 0.086337 0.096605 0.405716 0.752941 0.752941 0.752941
vn 0.178206 -0.911293 -0.371198
v 0.078247 0.094693 0.400174 0.752941 0.752941 0.752941
vn 0.419303 -0.793977 0.440212
v 0.078118 0.076073 0.445825 0.752941 0.752941 0.752941
vn -0.244503 -0.666129 0.704621
v -0.076468 0.336852 0.145494 0.752941 0.752941 0.752941
vn -0.249140 -0.924688 -0.287891
v -0.060230 0.347335 0.041108 0.752941 0.752941 0.752941
vn 0.781190 -0.330014 0.529938
v -0.063583 0.196615 0.055906 0.752941 0.752941 0.752941
vn -0.959122 -0.232390 0.161490
v -0.087961 0.208103 0.051726 0.752941 0.752941 0.752941
vn -0.281391 0.159911 -0.946175
v -0.067189 0.216075 0.023004 0.752941 0.752941 0.752941
vn -0.953755 -0.060539 -0.294427
v -0.085843 0.060689 0.019542 0.752941 0.752941 0.752941
vn -0.110499 -0.993683 -0.019582
v -0.071722 0.060664 -0.008142 0.752941 0.752941 0.752941
vn -0.891442 -0.447586 0.070696
v -0.073942 0.011728 0.036875 0.752941 0.752941 0.752941
vn 0.933964 0.240984 -0.263888
v 0.036833 0.665760 0.127437 0.752941 0.752941 0.752941
vn -0.924590 0.314285 -0.215310
v -0.038810 0.733869 0.202031 0.752941 0.752941 0.752941
vn -0.592726 -0.304384 0.745672
v -0.014675 0.645203 0.244731 0.752941 0.752941 0.752941
vn 0.651628 0.677794 -0.340552
v 0.015120 0.783104 0.227412 0.752941 0.752941 0.752941
vn 0.953226 -0.207898 0.219406
v 0.035469 0.688098 0.227428 0.752941 0.752941 0.752941
vn -0.969025 -0.019152 0.246219
v -0.045903 0.714389 0.322430 0.752941 0.752941 0.752941
vn -0.980469 0.105262 0.166136
v -0.045584 0.739869 0.321887 0.752941 0.752941 0.752941
vn -0.822040 0.095622 0.561344
v -0.044895 0.742137 0.324519 0.752941 0.752941 0.752941
vn -0.896156 0.377912 0.232569
v -0.045026 0.773301 0.303999 0.752941 0.752941 0.752941
vn -0.540182 -0.808499 0.233523
v -0.034963 0.627947 0.334029 0.752941 0.752941 0.752941
vn -0.940314 -0.058149 0.335304
v -0.046274 0.737602 0.319254 0.752941 0.752941 0.752941
vn 0.922635 -0.281657 0.263466
v 0.039483 0.635566 0.330486 0.752941 0.752941 0.752941
vn 0.227216 0.936306 0.267775
v 0.019918 0.798836 0.316369 0.752941 0.752941 0.752941
vn -0.372676 0.078849 0.924605
v 0.005660 0.704730 0.373817 0.752941 0.752941 0.752941
vn 0.440160 -0.195220 -0.876441
v 0.075696 0.329017 -0.371380 0.752941 0.752941 0.752941
vn 0.961181 -0.219075 0.167742
v 0.092604 0.251043 -0.375259 0.752941 0.752941 0.752941
vn -0.645231 -0.684245 0.339832
v 0.051240 0.315324 -0.297011 0.752941 0.752941 0.752941
vn 0.789796 -0.479217 0.382849
v 0.112715 0.332046 -0.269711 0.752941 0.752941 0.752941
vn -0.508660 -0.542696 0.668391
v 0.040394 0.032784 -0.419558 0.752941 0.752941 0.752941
vn 0.741979 -0.025805 -0.669926
v 0.088558 0.010473 -0.440742 0.752941 0.752941 0.752941
vn -0.264206 0.288072 -0.920440
v 0.064060 0.250887 -0.410912 0.752941 0.752941 0.752941
vn -0.333672 -0.834070 0.439307
v -0.085099 0.326340 -0.306711 0.752941 0.752941 0.752941
vn -0.261047 0.099038 -0.960232
v -0.047299 0.512512 -0.412906 0.752941 0.752941 0.752941
vn -0.811791 -0.508751 0.286650
v -0.076317 0.267116 -0.462436 0.752941 0.752941 0.752941
vn 0.077756 0.027071 -0.996605
v -0.069605 0.356958 -0.432123 0.752941 0.752941 0.752941
vn 0.298640 -0.917392 0.263070
v -0.033295 0.357450 -0.290014 0.752941 0.752941 0.752941
vn -0.984630 -0.067927 -0.160906
v -0.118353 0.364912 -0.355763 0.752941 0.752941 0.752941
vn -0.588448 -0.465955 0.660769
v -0.064850 0.134382 -0.511770 0.752941 0.752941 0.752941
vn 0.978806 -0.101761 0.177715
v -0.053248 0.238276 -0.480929 0.752941 0.752941 0.752941
vn 0.974706 -0.102837 -0.198423
v -0.049278 0.100743 -0.581715 0.752941 0.752941 0.752941
vn -0.974918 -0.197199 -0.103190
v -0.087769 0.125860 -0.636457 0.752941 0.752941 0.752941
vn -0.221896 0.671171 -0.707313
v -0.069610 0.163590 -0.571251 0.752941 0.752941 0.752941
vn -0.769163 -0.631754 -0.096305
v -0.002748 0.615389 -0.508482 0.752941 0.752941 0.752941
vn 0.840138 -0.536164 -0.081833
v 0.050288 0.625300 -0.537350 0.752941 0.752941 0.752941
vn 0.642272 -0.643315 -0.416694
v -0.000421 0.649447 -0.767787 0.752941 0.752941 0.752941
vn -0.622324 0.777245 -0.092755
v -0.034273 0.711547 -0.799889 0.752941 0.752941 0.752941
vn 0.212285 0.975759 0.053197
v 0.019324 0.693500 -0.667109 0.752941 0.752941 0.752941
# 109 vertices, 0 vertices normals

f 10//10 6//6 5//5
f 21//21 10//10 5//5
f 15//15 6//6 10//10
f 8//8 1//1 5//5
f 3//3 12//12 23//23
f 2//2 4//4 3//3
f 3//3 98//98 12//12
f 5//5 1//1 21//21
f 2//2 3//3 23//23
f 8//8 3//3 4//4
f 6//6 15//15 95//95
f 99//99 6//6 95//95
f 7//7 6//6 99//99
f 5//5 6//6 7//7
f 5//5 7//7 8//8
f 14//14 95//95 13//13
f 27//27 16//16 20//20
f 24//24 12//12 16//16
f 9//9 19//19 95//95
f 20//20 17//17 10//10
f 17//17 15//15 10//10
f 11//11 27//27 20//20
f 23//23 12//12 24//24
f 16//16 27//27 25//25
f 19//19 15//15 17//17
f 9//9 15//15 19//19
f 10//10 11//11 20//20
f 18//18 19//19 17//17
f 20//20 18//18 17//17
f 1//1 8//8 4//4
f 4//4 2//2 66//66
f 21//21 22//22 10//10
f 1//1 33//33 21//21
f 24//24 26//26 23//23
f 36//36 24//24 25//25
f 25//25 27//27 37//37
f 36//36 26//26 24//24
f 22//22 11//11 10//10
f 25//25 24//24 16//16
f 31//31 32//32 30//30
f 32//32 22//22 21//21
f 29//29 21//21 33//33
f 4//4 33//33 1//1
f 43//43 28//28 31//31
f 32//32 29//29 30//30
f 31//31 65//65 43//43
f 4//4 66//66 33//33
f 21//21 29//29 32//32
f 65//65 66//66 43//43
f 2//2 23//23 26//26
f 2//2 26//26 66//66
f 30//30 29//29 33//33
f 39//39 38//38 28//28
f 35//35 27//27 11//11
f 37//37 27//27 35//35
f 34//34 28//28 38//38
f 34//34 38//38 40//40
f 36//36 45//45 26//26
f 39//39 28//28 43//43
f 36//36 25//25 37//37
f 22//22 35//35 11//11
f 40//40 35//35 34//34
f 22//22 34//34 35//35
f 66//66 26//26 43//43
f 35//35 40//40 37//37
f 40//40 41//41 37//37
f 40//40 38//38 41//41
f 36//36 41//41 45//45
f 26//26 45//45 43//43
f 37//37 41//41 36//36
f 38//38 39//39 41//41
f 42//42 45//45 41//41
f 44//44 43//43 45//45
f 39//39 43//43 44//44
f 42//42 41//41 39//39
f 42//42 39//39 44//44
f 42//42 47//47 45//45
f 44//44 45//45 47//47
f 46//46 44//44 47//47
f 42//42 44//44 46//46
f 46//46 48//48 42//42
f 42//42 48//48 49//49
f 42//42 49//49 50//50
f 47//47 42//42 50//50
f 47//47 50//50 51//51
f 47//47 51//51 52//52
f 47//47 52//52 53//53
f 47//47 53//53 54//54
f 47//47 54//54 55//55
f 47//47 55//55 46//46
f 46//46 64//64 56//56
f 46//46 56//56 48//48
f 55//55 57//57 46//46
f 57//57 64//64 46//46
f 63//63 64//64 57//57
f 62//62 64//64 63//63
f 61//61 64//64 62//62
f 60//60 64//64 61//61
f 59//59 64//64 60//60
f 58//58 64//64 59//59
f 56//56 64//64 58//58
f 30//30 65//65 31//31
f 30//30 68//68 65//65
f 68//68 30//30 33//33
f 68//68 66//66 69//69
f 65//65 68//68 67//67
f 68//68 33//33 66//66
f 65//65 67//67 66//66
f 69//69 66//66 67//67
f 71//71 70//70 69//69
f 68//68 69//69 70//70
f 71//71 69//69 67//67
f 71//71 67//67 68//68
f 68//68 70//70 72//72
f 71//71 72//72 70//70
f 72//72 71//71 68//68
f 31//31 75//75 32//32
f 32//32 74//74 22//22
f 73//73 34//34 22//22
f 28//28 75//75 31//31
f 73//73 77//77 34//34
f 77//77 28//28 34//34
f 74//74 32//32 75//75
f 74//74 76//76 22//22
f 73//73 76//76 77//77
f 73//73 22//22 76//76
f 28//28 77//77 75//75
f 81//81 85//85 74//74
f 79//79 80//80 81//81
f 85//85 81//81 86//86
f 82//82 84//84 86//86
f 80//80 86//86 81//81
f 81//81 78//78 83//83
f 74//74 78//78 81//81
f 85//85 76//76 74//74
f 86//86 80//80 83//83
f 78//78 74//74 82//82
f 75//75 82//82 74//74
f 86//86 78//78 82//82
f 76//76 85//85 84//84
f 86//86 84//84 85//85
f 77//77 84//84 82//82
f 76//76 84//84 77//77
f 86//86 83//83 78//78
f 82//82 75//75 77//77
f 79//79 81//81 83//83
f 89//89 90//90 12//12
f 13//13 87//87 14//14
f 12//12 14//14 89//89
f 95//95 19//19 13//13
f 19//19 18//18 13//13
f 12//12 90//90 16//16
f 90//90 18//18 20//20
f 16//16 90//90 20//20
f 90//90 88//88 87//87
f 90//90 89//89 88//88
f 89//89 14//14 87//87
f 87//87 88//88 93//93
f 90//90 87//87 18//18
f 18//18 87//87 13//13
f 87//87 93//93 89//89
f 93//93 91//91 89//89
f 88//88 91//91 92//92
f 91//91 93//93 92//92
f 88//88 89//89 91//91
f 93//93 88//88 92//92
f 14//14 97//97 95//95
f 12//12 98//98 14//14
f 98//98 3//3 94//94
f 95//95 97//97 99//99
f 99//99 94//94 3//3
f 99//99 8//8 7//7
f 99//99 3//3 8//8
f 94//94 96//96 98//98
f 97//97 14//14 98//98
f 96//96 94//94 99//99
f 99//99 97//97 96//96
f 96//96 101//101 98//98
f 101//101 96//96 100//100
f 101//101 102//102 104//104
f 100//100 102//102 101//101
f 104//104 97//97 101//101
f 101//101 97//97 98//98
f 96//96 97//97 104//104
f 100//100 104//104 103//103
f 103//103 102//102 100//100
f 100//100 96//96 104//104
f 102//102 103//103 104//104
f 9//9 95//95 105//105
f 15//15 105//105 95//95
f 9//9 105//105 106//106
f 15//15 109//109 105//105
f 9//9 109//109 15//15
f 9//9 106//106 109//109
f 108//108 105//105 109//109
f 105//105 107//107 106//106
f 105//105 108//108 107//107
f 106//106 107//107 109//109
f 107//107 108//108 109//109
# 199 faces, 0 coords texture

# End of File
